# xmcd CD database file
#
# Track frame offsets:
#	150
#	14837
#	30607
#	50600
#	66332
#	81607
#	95275
#	114372
#	130712
#	144047
#	154210
#	166577
#	176147
#	184877
#	198787
#	209152
#	220112
#
# Disc length: 3094 seconds
#
# Revision: 0
# Processed by: cddbd v1.5.2PL0 Copyright (c) Steve Scherf et al.
# Submitted via: CDex 1.70beta2
#
DISCID=f30c1411
DTITLE=Götz Alsmann - Götz Alsmann - Kuss
DYEAR=2005
DGENRE=Jazz
TTITLE0=Ganz leicht
TTITLE1=Dosvedanje
TTITLE2=Blumen für die Dame
TTITLE3=Hallo, schöne Frau
TTITLE4=Ninon
TTITLE5=Oh Sarah
TTITLE6=Roter Mohn
TTITLE7=Für eine Nacht voller Seeligkeit
TTITLE8=Bevor du schlafen gehst, ruf mich noch an
TTITLE9=Couscous
TTITLE10=Sonntags Melodie
TTITLE11=Einmal.. zweimal.. und vielleicht auch dreimal
TTITLE12=Du trittst meine Liebe mit Füssen
TTITLE13=Lied ohne Worte
TTITLE14=Das mach ich mit Musik
TTITLE15=Geh´n sie nicht allein nach Hause
TTITLE16=Dein Kuss von gestern Nacht, mein Schatz
EXTD=YEAR: 2005
EXTT0=
EXTT1=
EXTT2=
EXTT3=
EXTT4=
EXTT5=
EXTT6=
EXTT7=
EXTT8=
EXTT9=
EXTT10=
EXTT11=
EXTT12=
EXTT13=
EXTT14=
EXTT15=
EXTT16=
PLAYORDER=
